<mxfile host="app.diagrams.net" modified="2023-06-01T01:36:34.961Z" agent="Mozilla/5.0 (Macintosh; Intel Mac OS X 10_15_7) AppleWebKit/537.36 (KHTML, like Gecko) Chrome/113.0.0.0 Safari/537.36" version="21.3.6" etag="94x9ZWp4JF-AGBWqyTvY" type="github">
  <diagram name="Page-1" id="0NRl4Hhdzed1UwSniBZg">
    <mxGraphModel>
      <root>
        <mxCell id="0" />
        <mxCell id="1" parent="0" />
      </root>
    </mxGraphModel>
  </diagram>
</mxfile>
